<mxfile host="app.diagrams.net" agent="Mozilla/5.0 (Windows NT 10.0; Win64; x64) AppleWebKit/537.36 (KHTML, like Gecko) Chrome/135.0.0.0 Safari/537.36 Edg/135.0.0.0" version="26.2.12">
  <diagram name="Page-1" id="2a216829-ef6e-dabb-86c1-c78162f3ba2b">
    <mxGraphModel dx="1183" dy="633" grid="1" gridSize="10" guides="1" tooltips="1" connect="1" arrows="1" fold="1" page="1" pageScale="1" pageWidth="850" pageHeight="1100" background="none" math="0" shadow="0">
      <root>
        <mxCell id="0" />
        <mxCell id="1" parent="0" />
        <mxCell id="kCDRWN4eHYptyOttCMa9-4" value="PRESTACIÓN DE SERVICIOS" style="rounded=0;whiteSpace=wrap;html=1;flipV=1;flipH=1;direction=east;textDirection=vertical-lr;rotation=-180;" vertex="1" parent="1">
          <mxGeometry x="80" y="160" width="40" height="480" as="geometry" />
        </mxCell>
        <mxCell id="kCDRWN4eHYptyOttCMa9-5" value="" style="rounded=0;whiteSpace=wrap;html=1;" vertex="1" parent="1">
          <mxGeometry x="120" y="160" width="680" height="120" as="geometry" />
        </mxCell>
        <mxCell id="kCDRWN4eHYptyOttCMa9-6" value="" style="rounded=0;whiteSpace=wrap;html=1;" vertex="1" parent="1">
          <mxGeometry x="120" y="280" width="680" height="120" as="geometry" />
        </mxCell>
        <mxCell id="kCDRWN4eHYptyOttCMa9-7" value="" style="rounded=0;whiteSpace=wrap;html=1;" vertex="1" parent="1">
          <mxGeometry x="120" y="400" width="680" height="120" as="geometry" />
        </mxCell>
        <mxCell id="kCDRWN4eHYptyOttCMa9-8" value="" style="rounded=0;whiteSpace=wrap;html=1;" vertex="1" parent="1">
          <mxGeometry x="120" y="520" width="680" height="120" as="geometry" />
        </mxCell>
        <mxCell id="kCDRWN4eHYptyOttCMa9-9" value="Central" style="rounded=0;whiteSpace=wrap;html=1;textDirection=vertical-rl;flipH=0;flipV=0;direction=east;rotation=-180;" vertex="1" parent="1">
          <mxGeometry x="120" y="160" width="20" height="120" as="geometry" />
        </mxCell>
        <mxCell id="kCDRWN4eHYptyOttCMa9-10" value="Orden de Atención" style="rounded=0;whiteSpace=wrap;html=1;textDirection=vertical-rl;flipH=0;flipV=0;direction=east;rotation=180;" vertex="1" parent="1">
          <mxGeometry x="120" y="280" width="20" height="120" as="geometry" />
        </mxCell>
        <mxCell id="kCDRWN4eHYptyOttCMa9-11" value="Equipo Móvil" style="rounded=0;whiteSpace=wrap;html=1;textDirection=vertical-rl;flipH=0;flipV=0;direction=east;rotation=180;" vertex="1" parent="1">
          <mxGeometry x="120" y="400" width="20" height="120" as="geometry" />
        </mxCell>
        <mxCell id="kCDRWN4eHYptyOttCMa9-12" value="Administración" style="rounded=0;whiteSpace=wrap;html=1;textDirection=vertical-rl;flipH=0;flipV=0;direction=east;rotation=180;" vertex="1" parent="1">
          <mxGeometry x="120" y="520" width="20" height="120" as="geometry" />
        </mxCell>
        <mxCell id="kCDRWN4eHYptyOttCMa9-13" value="" style="ellipse;whiteSpace=wrap;html=1;aspect=fixed;gradientColor=default;fillColor=none;strokeColor=light-dark(#000000,#FFFF33);strokeWidth=2;" vertex="1" parent="1">
          <mxGeometry x="150" y="205" width="30" height="30" as="geometry" />
        </mxCell>
      </root>
    </mxGraphModel>
  </diagram>
</mxfile>
